<?xml version="1.0" encoding="utf-8"?>
<!-- Generator: Adobe Illustrator 27.5.0, SVG Export Plug-In . SVG Version: 6.00 Build 0)  -->
<svg version="1.1" xmlns="http://www.w3.org/2000/svg" xmlns:xlink="http://www.w3.org/1999/xlink" x="0px" y="0px"
	 viewBox="0 0 500 500" style="enable-background:new 0 0 500 500;" xml:space="preserve">
<g id="BACKGROUND">
	<rect style="fill:#403472;" width="500" height="500"/>
</g>
<g id="OBJECTS">
	<g style="opacity:0.55;">
		<defs>
			<rect id="SVGID_1_" style="opacity:0.55;" width="500" height="500"/>
		</defs>
		<clipPath id="SVGID_00000175313966147712418170000013676916240054400185_">
			<use xlink:href="#SVGID_1_"  style="overflow:visible;"/>
		</clipPath>
		<path style="opacity:0.5;clip-path:url(#SVGID_00000175313966147712418170000013676916240054400185_);fill:#252249;" d="
			M549.799,102.219c-29.543,0-54.42,19.914-61.983,47.045c-7.206-3.308-15.216-5.167-23.665-5.167
			c-31.365,0-56.793,25.427-56.793,56.793c0,1.24,0.055,2.467,0.132,3.688c-12.365-10.737-28.495-17.252-46.157-17.252
			c-26.982,0-50.412,15.176-62.247,37.452c-13.795-10.761-31.136-17.188-49.985-17.188c-19.291,0-37.003,6.727-50.948,17.944
			c-11.703-22.686-35.349-38.208-62.635-38.208c-17.662,0-33.792,6.515-46.158,17.252c0.078-1.221,0.132-2.447,0.132-3.688
			c0-31.366-25.427-56.793-56.793-56.793c-8.448,0-16.459,1.859-23.665,5.167c-7.563-27.131-32.44-47.045-61.983-47.045
			c-35.544,0-64.358,29.007-64.358,64.551c0,5.154,1.767,333.23,1.767,333.23H614V171.564c0-1.649,0.184-3.308,0.184-4.987
			C614.184,131.032,585.342,102.219,549.799,102.219z"/>
		
			<linearGradient id="SVGID_00000044878569900039755550000007058576261691499136_" gradientUnits="userSpaceOnUse" x1="249.7063" y1="378.3837" x2="251.0404" y2="569.7164">
			<stop  offset="0" style="stop-color:#403472"/>
			<stop  offset="1" style="stop-color:#403472;stop-opacity:0"/>
		</linearGradient>
		
			<path style="opacity:0.6;clip-path:url(#SVGID_00000175313966147712418170000013676916240054400185_);fill:url(#SVGID_00000044878569900039755550000007058576261691499136_);" d="
			M472.516,290.219c-21.869,0-40.284,14.741-45.883,34.825c-5.334-2.449-11.264-3.825-17.518-3.825
			c-23.219,0-42.041,18.822-42.041,42.041c0,0.918,0.04,1.826,0.098,2.729c-9.153-7.948-21.094-12.77-34.168-12.77
			c-19.974,0-37.317,11.233-46.078,27.724c-10.212-7.966-23.048-12.724-37.002-12.724c-14.28,0-27.391,4.979-37.714,13.283
			c-8.664-16.793-26.167-28.283-46.365-28.283c-13.074,0-25.015,4.822-34.168,12.77c0.058-0.903,0.098-1.812,0.098-2.729
			c0-23.219-18.822-42.041-42.041-42.041c-6.254,0-12.184,1.376-17.518,3.825c-5.599-20.084-24.014-34.825-45.883-34.825
			c-26.311,0-47.641,21.329-47.641,47.641C-21.308,341.674-20,500-20,500h540V341.551c0.094-1.22,0.156-2.448,0.156-3.691
			C520.156,311.548,498.826,290.219,472.516,290.219z"/>
		
			<linearGradient id="SVGID_00000010993156690744586140000006401836106690554257_" gradientUnits="userSpaceOnUse" x1="251.1252" y1="423.8844" x2="250.1251" y2="534.8856">
			<stop  offset="0" style="stop-color:#403472"/>
			<stop  offset="1" style="stop-color:#403472;stop-opacity:0"/>
		</linearGradient>
		
			<path style="opacity:0.6;clip-path:url(#SVGID_00000175313966147712418170000013676916240054400185_);fill:url(#SVGID_00000010993156690744586140000006401836106690554257_);" d="
			M460.005,461c-5.53,0-10.733,1.403-15.271,3.873c-1.8-12.37-12.446-21.873-25.315-21.873c-13.883,0-25.176,11.06-25.568,24.848
			c-4.42-1.832-9.263-2.848-14.345-2.848c-5.218,0-10.186,1.068-14.701,2.994C363.192,454.48,351.7,444,337.752,444
			c-4.215,0-8.206,0.958-11.769,2.666C325.539,430.209,312.068,417,295.502,417c-5.812,0-11.242,1.626-15.864,4.447
			C275.78,409.023,264.195,400,250.502,400c-13.693,0-25.278,9.023-29.135,21.447c-4.623-2.821-10.053-4.447-15.865-4.447
			c-16.566,0-30.037,13.209-30.481,29.667c-3.563-1.709-7.553-2.667-11.769-2.667c-13.948,0-25.44,10.48-27.052,23.994
			c-4.515-1.926-9.482-2.994-14.701-2.994c-5.082,0-9.925,1.016-14.345,2.848C106.763,454.06,95.47,443,81.587,443
			c-12.87,0-23.516,9.503-25.315,21.873C51.733,462.403,46.53,461,41,461c-17.673,0-32,14.327-32,32s14.324,32,31.998,32
			l419.007,0.016c17.673,0,32-14.335,32-32.008C492.005,475.335,477.678,461,460.005,461z"/>
	</g>
	
		<radialGradient id="SVGID_00000095338273961249572290000004707653652714328984_" cx="249" cy="224" r="163.0122" gradientUnits="userSpaceOnUse">
		<stop  offset="0" style="stop-color:#5F49D2"/>
		<stop  offset="1" style="stop-color:#8035F3;stop-opacity:0"/>
	</radialGradient>
	<circle style="opacity:0.7;fill:url(#SVGID_00000095338273961249572290000004707653652714328984_);" cx="249" cy="224" r="187"/>
	<g>
		<path style="fill:#292929;" d="M442,246.469c0,1.95-1.581,3.531-3.531,3.531h-81.938c-1.95,0-3.531-1.581-3.531-3.531v-52.938
			c0-1.95,1.581-3.531,3.531-3.531h81.938c1.95,0,3.531,1.581,3.531,3.531V246.469z"/>
		<rect x="357" y="193" style="fill:#F4EDDC;" width="40" height="53"/>
		<rect x="397" y="193" style="fill:#EFE2C5;" width="41" height="53"/>
	</g>
	<g>
		<path style="fill:#2A293F;" d="M218,107v-2H108.848c-0.144,0-0.945-1.414-1.921-1.414c-1.078,0-1.95,0.993-1.95,2.07
			c0,1.078,0.872,2.208,1.95,2.208c0.78,0,1.448-0.864,1.759-0.864H218z"/>
		<path style="fill:#2A293F;" d="M235,209v-2H125.848c-0.144,0-0.945-1.414-1.921-1.414c-1.078,0-1.95,0.993-1.95,2.07
			c0,1.078,0.872,2.208,1.95,2.208c0.78,0,1.448-0.864,1.759-0.864H235z"/>
		<path style="fill:#2A293F;" d="M281,152v2h109.129c0.145,0,0.945,1.639,1.921,1.639c1.077,0,1.95-0.88,1.95-1.958
			c0-1.078-0.873-2.377-1.95-2.377c-0.78,0-1.448,0.695-1.76,0.695H281z"/>
		<path style="fill:#2A293F;" d="M302,258v2h126.129c0.145,0,0.945,1.639,1.921,1.639c1.077,0,1.95-0.88,1.95-1.957
			c0-1.078-0.873-2.377-1.95-2.377c-0.78,0-1.448,0.695-1.76,0.695H302z"/>
	</g>
	<g>
		<path style="fill:#FFFFFF;" d="M427.73,48.37c0,0.64-0.52,1.159-1.16,1.159s-1.159-0.519-1.159-1.159
			c0-0.641,0.519-1.16,1.159-1.16S427.73,47.729,427.73,48.37z"/>
		<path style="fill:#FFFFFF;" d="M197.648,93.911c0,0.894-0.725,1.619-1.619,1.619c-0.894,0-1.618-0.725-1.618-1.619
			c0-0.894,0.725-1.619,1.618-1.619C196.924,92.292,197.648,93.017,197.648,93.911z"/>
		<path style="fill:#FFFFFF;" d="M248.73,37.37c0,0.64-0.519,1.159-1.16,1.159c-0.64,0-1.159-0.519-1.159-1.159
			c0-0.641,0.519-1.16,1.159-1.16C248.211,36.21,248.73,36.729,248.73,37.37z"/>
		<path style="fill:#FFFFFF;" d="M143.73,143.37c0,0.64-0.519,1.159-1.16,1.159c-0.64,0-1.159-0.519-1.159-1.159
			c0-0.641,0.519-1.16,1.159-1.16C143.211,142.21,143.73,142.73,143.73,143.37z"/>
		<path style="fill:#FFFFFF;" d="M337.73,224.37c0,0.64-0.52,1.159-1.16,1.159s-1.159-0.519-1.159-1.159
			c0-0.641,0.519-1.16,1.159-1.16S337.73,223.73,337.73,224.37z"/>
		<path style="fill:#FFFFFF;" d="M476.73,178.37c0,0.64-0.52,1.159-1.16,1.159s-1.159-0.519-1.159-1.159
			c0-0.641,0.519-1.16,1.159-1.16S476.73,177.73,476.73,178.37z"/>
		<path style="fill:#FFFFFF;" d="M335.73,311.37c0,0.64-0.52,1.159-1.16,1.159s-1.159-0.52-1.159-1.159
			c0-0.641,0.519-1.159,1.159-1.159S335.73,310.729,335.73,311.37z"/>
		<path style="fill:#FFFFFF;" d="M477.73,317.37c0,0.64-0.52,1.159-1.16,1.159s-1.159-0.52-1.159-1.159
			c0-0.641,0.519-1.159,1.159-1.159S477.73,316.729,477.73,317.37z"/>
		<path style="fill:#FFFFFF;" d="M404.73,357.37c0,0.64-0.52,1.159-1.16,1.159s-1.159-0.52-1.159-1.159
			c0-0.641,0.519-1.159,1.159-1.159S404.73,356.729,404.73,357.37z"/>
		<path style="fill:#FFFFFF;" d="M446.73,397.37c0,0.64-0.52,1.159-1.16,1.159s-1.159-0.52-1.159-1.159
			c0-0.641,0.519-1.159,1.159-1.159S446.73,396.729,446.73,397.37z"/>
		<path style="fill:#FFFFFF;" d="M383.73,419.37c0,0.64-0.52,1.159-1.16,1.159s-1.159-0.52-1.159-1.159
			c0-0.641,0.519-1.159,1.159-1.159S383.73,418.729,383.73,419.37z"/>
		<path style="fill:#FFFFFF;" d="M168.73,417.37c0,0.64-0.52,1.159-1.16,1.159c-0.641,0-1.159-0.52-1.159-1.159
			c0-0.641,0.519-1.159,1.159-1.159C168.211,416.211,168.73,416.729,168.73,417.37z"/>
		<path style="fill:#FFFFFF;" d="M169.73,332.37c0,0.64-0.52,1.159-1.16,1.159c-0.641,0-1.159-0.52-1.159-1.159
			c0-0.641,0.519-1.159,1.159-1.159C169.211,331.211,169.73,331.729,169.73,332.37z"/>
		<path style="fill:#FFFFFF;" d="M45.73,480.37c0,0.64-0.52,1.159-1.16,1.159c-0.641,0-1.159-0.52-1.159-1.159
			c0-0.641,0.519-1.159,1.159-1.159C45.211,479.211,45.73,479.729,45.73,480.37z"/>
		<path style="fill:#FFFFFF;" d="M343.73,481.37c0,0.64-0.52,1.159-1.16,1.159s-1.159-0.52-1.159-1.159
			c0-0.641,0.519-1.159,1.159-1.159S343.73,480.729,343.73,481.37z"/>
		<path style="fill:#FFFFFF;" d="M86.73,421.37c0,0.64-0.52,1.159-1.16,1.159c-0.641,0-1.159-0.52-1.159-1.159
			c0-0.641,0.519-1.159,1.159-1.159C86.211,420.211,86.73,420.729,86.73,421.37z"/>
		<path style="fill:#FFFFFF;" d="M29.73,347.37c0,0.64-0.52,1.159-1.16,1.159s-1.159-0.52-1.159-1.159
			c0-0.641,0.519-1.159,1.159-1.159S29.73,346.729,29.73,347.37z"/>
		<path style="fill:#FFFFFF;" d="M102.73,292.37c0,0.64-0.52,1.159-1.16,1.159c-0.641,0-1.159-0.52-1.159-1.159
			c0-0.641,0.519-1.159,1.159-1.159C102.211,291.211,102.73,291.729,102.73,292.37z"/>
		<path style="fill:#FFFFFF;" d="M154.73,252.37c0,0.64-0.52,1.159-1.16,1.159c-0.641,0-1.159-0.52-1.159-1.159
			c0-0.641,0.519-1.159,1.159-1.159C154.211,251.211,154.73,251.73,154.73,252.37z"/>
		<path style="fill:#FFFFFF;" d="M38.73,190.37c0,0.64-0.52,1.159-1.16,1.159c-0.641,0-1.159-0.52-1.159-1.159
			c0-0.641,0.519-1.159,1.159-1.159C38.211,189.211,38.73,189.73,38.73,190.37z"/>
		<path style="fill:#FFFFFF;" d="M51.73,46.37c0,0.64-0.52,1.159-1.16,1.159c-0.641,0-1.159-0.52-1.159-1.159
			c0-0.641,0.519-1.159,1.159-1.159C51.211,45.211,51.73,45.729,51.73,46.37z"/>
		<path style="fill:#FFFFFF;" d="M309.73,127.37c0,0.64-0.52,1.159-1.16,1.159s-1.159-0.519-1.159-1.159
			c0-0.641,0.519-1.16,1.159-1.16S309.73,126.729,309.73,127.37z"/>
	</g>
	<g>
		<path style="fill:#DFE2EB;" d="M369,141v2.548c0,0.969,0.813,2.452,1.783,2.452h8.1c0.972,0,2.117-1.483,2.117-2.452V141H369z"/>
		<path style="fill:#EEF3FF;" d="M383,139.879c0,0.619-0.502,1.121-1.122,1.121h-13.756c-0.62,0-1.122-0.502-1.122-1.121v-1.759
			c0-0.619,0.502-1.121,1.122-1.121h13.756c0.62,0,1.122,0.502,1.122,1.121V139.879z"/>
		<path style="fill:#FFEB73;" d="M374.912,81h-0.57c-12.776,0-21.69,11.12-21.69,22.513c0,11.395,10.249,18.789,13.363,22.622
			c2.188,2.691,1.118,6.866,1.118,6.866h14.829c0,0,0.209-3.986,0.847-6.334c1.934-7.121,13.637-11.973,13.637-23.366
			C396.446,91.906,387.689,81,374.912,81z"/>
		<path style="opacity:0.3;fill:#FFEB73;" d="M370.231,115.372c-6.593-9.328-9.868-22.437-5.009-32.398
			c-7.695,3.763-12.57,12.054-12.57,20.473c0,11.394,10.249,18.781,13.363,22.613c2.188,2.691,1.118,6.857,1.118,6.857h14.829
			c0,0,0.209-3.944,0.847-6.292c0.233-0.858,0.614-1.684,1.094-2.494C378.829,123.367,373.828,120.461,370.231,115.372z"/>
		<path style="fill:#C5CCDD;" d="M385,136.698c0,0.719-0.583,1.302-1.303,1.302h-16.395c-0.72,0-1.303-0.583-1.303-1.302v-2.396
			c0-0.719,0.583-1.302,1.303-1.302h16.395c0.72,0,1.303,0.583,1.303,1.302V136.698z"/>
		<path style="opacity:0.5;fill:#FFF8DC;" d="M390.355,102.431c-0.678,0-1.276-0.493-1.388-1.185
			c-2.145-13.39-14.297-13.545-14.419-13.545c-0.777,0-1.407-0.629-1.407-1.406c0-0.777,0.63-1.407,1.407-1.407
			c0.146,0,14.676,0.182,17.197,15.913c0.123,0.768-0.4,1.489-1.167,1.612C390.504,102.425,390.43,102.431,390.355,102.431z"/>
		<path style="opacity:0.5;fill:#FFF8DC;" d="M389.226,111.992c-0.251,0-0.505-0.067-0.736-0.208
			c-0.66-0.407-0.866-1.273-0.46-1.935c1.127-1.831,0.93-4.201,0.928-4.224c-0.077-0.774,0.489-1.462,1.261-1.539
			c0.808-0.084,1.463,0.49,1.539,1.262c0.014,0.134,0.305,3.316-1.331,5.975C390.16,111.754,389.699,111.992,389.226,111.992z"/>
	</g>
	<g>
		<path style="fill:#DFE2EB;" d="M133.429,170c-0.576-2-1.739-5.115-3.347-7.369l2.951-2.808l-5.068-4.996l-2.686,3.042
			c-2.252-1.528-5.279-2.576-7.279-3.098V150h-8v4.707c-2,0.479-5.351,1.539-7.648,3.056l-2.818-2.865l-5.044,5.069l2.753,2.455
			c-1.687,2.301-2.89,5.578-3.484,7.578H89v8h4.578c0.462,2,1.601,5.723,3.256,8.158l-2.32,2.256l5.068,5.037l2.17-2.281
			c2.435,1.737,6.248,2.934,8.248,3.455V199h8v-4.44c2-0.568,5.485-1.805,7.872-3.555l2.253,2.414l4.987-5.069l-2.576-2.408
			c1.577-2.385,2.625-5.941,3.074-7.941H138v-8H133.429z M113.654,184.939c-5.674,0-10.274-4.599-10.274-10.273
			c0-5.675,4.6-10.273,10.274-10.273c5.674,0,10.274,4.599,10.274,10.273C123.928,180.34,119.328,184.939,113.654,184.939z"/>
		<path style="opacity:0.5;fill:#DFE2EB;" d="M133.429,170.274c-0.444-2.175-1.242-4.111-2.316-5.917
			c-0.542,4.701-2.836,9.104-7.406,12.431c-0.979,4.656-5.106,8.151-10.052,8.151c-1.98,0-3.823-0.569-5.393-1.541
			c-3.903,0.889-7.915,1.402-11.851,1.703c0.145,0.238,0.27,0.499,0.423,0.724l-2.32,2.422l5.068,5.12l2.468-2.239
			c2.435,1.738,5.722,2.976,8.546,3.496v3.894h7.061v-3.958c2.824-0.568,5.657-1.805,8.044-3.555l2.339,2.414l5.031-5.069
			l-2.555-2.74c1.577-2.385,2.646-5.449,3.095-8.274h3.817v-7.061H133.429z"/>
		<path style="opacity:0.6;fill:#FFFFFF;" d="M98.628,172.397c-0.064,0-0.129-0.006-0.194-0.021
			c-0.496-0.106-0.811-0.595-0.704-1.09c1.621-7.532,8.398-12.998,16.113-12.998c3.588,0.001,6.999,1.133,9.863,3.275
			c0.407,0.304,0.489,0.878,0.186,1.285c-0.303,0.406-0.88,0.489-1.285,0.186c-2.545-1.903-5.575-2.909-8.764-2.91
			c-6.856,0-12.878,4.856-14.319,11.548C99.433,172.103,99.052,172.397,98.628,172.397z"/>
		<path style="opacity:0.8;fill:#FFFFFF;" d="M99.376,181.448c-0.365,0-0.71-0.219-0.853-0.579
			c-0.484-1.216-0.822-2.495-1.004-3.801c-0.07-0.503,0.28-0.966,0.782-1.036c0.501-0.064,0.966,0.279,1.036,0.782
			c0.162,1.16,0.462,2.295,0.892,3.375c0.188,0.471-0.043,1.005-0.513,1.192C99.604,181.426,99.489,181.448,99.376,181.448z"/>
		<path style="fill:#DFE2EB;" d="M108.795,214c-0.667-2-2.012-5.912-3.872-8.519l3.414-3.246l-5.863-5.78l-3.579,3.521
			c-2.604-1.768-4.894-2.98-8.894-3.583V191h-7v5.319c-3,0.554-6.845,1.78-9.502,3.536l-3.587-3.314l-5.999,5.864l3.104,2.833
			C65.063,207.9,63.59,212,62.903,214H59v9h3.692c0.536,2,1.853,6.753,3.767,9.57l-2.685,2.677l5.864,5.858l3.166-2.621
			c2.817,2.01,7.196,3.411,10.196,4.012V247h7v-4.577c4-0.658,6.818-2.088,9.58-4.112l2.842,2.791l5.889-5.864l-2.921-2.919
			c1.823-2.759,3.096-7.319,3.615-9.319H113v-9H108.795z M85.918,231.294c-6.565,0-11.886-5.32-11.886-11.885
			c0-6.565,5.321-11.885,11.886-11.885c6.564,0,11.885,5.321,11.885,11.885C97.803,225.974,92.482,231.294,85.918,231.294z"/>
		<path style="opacity:0.5;fill:#DFE2EB;" d="M108.795,214.329c-0.514-2.517-1.437-4.757-2.68-6.848
			c-0.627,5.439-3.28,10.533-8.567,14.382c-1.132,5.387-5.907,9.431-11.629,9.431c-2.291,0-4.423-0.66-6.239-1.782
			c-4.515,1.027-9.157,1.621-13.709,1.969c0.167,0.275,0.312,0.576,0.489,0.837l-2.685,2.803l5.864,5.921l2.856-2.59
			c2.817,2.01,6.618,3.442,9.886,4.044v4.505h8.168v-4.579c3.268-0.658,6.545-2.088,9.306-4.112l2.706,2.791l5.82-5.864l-2.956-3.17
			c1.824-2.759,3.062-6.304,3.581-9.571h4.414v-8.168H108.795z"/>
		<path style="opacity:0.6;fill:#FFFFFF;" d="M68.536,216.64c-0.064,0-0.129-0.006-0.194-0.021c-0.495-0.106-0.811-0.595-0.704-1.09
			c1.863-8.647,9.644-14.922,18.502-14.922c4.118,0.001,8.034,1.301,11.324,3.76c0.406,0.303,0.488,0.878,0.185,1.285
			c-0.304,0.406-0.88,0.488-1.284,0.186c-2.97-2.22-6.506-3.394-10.225-3.395c-7.999,0-15.025,5.667-16.707,13.473
			C69.339,216.347,68.958,216.64,68.536,216.64z"/>
		<path style="opacity:0.8;fill:#FFFFFF;" d="M69.4,227.111c-0.365,0-0.71-0.219-0.853-0.579c-0.556-1.397-0.944-2.865-1.153-4.364
			c-0.07-0.503,0.28-0.966,0.782-1.036c0.512-0.074,0.967,0.28,1.035,0.782c0.19,1.354,0.539,2.678,1.041,3.939
			c0.188,0.471-0.043,1.005-0.514,1.192C69.628,227.089,69.513,227.111,69.4,227.111z"/>
	</g>
	<g>
		<circle style="opacity:0.2;fill:#403472;" cx="116.506" cy="75.632" r="21.808"/>
		<path style="fill:#FE893A;" d="M125.763,65.573c-0.555-0.492-1.333-0.641-2.03-0.393l-16.875,6.019
			c-0.684,0.243-1.185,0.834-1.316,1.548c-0.13,0.714,0.131,1.443,0.685,1.914l4.539,3.855l-12.27,12.047l-5.993-4.881
			c-0.836-0.681-2.057-0.59-2.783,0.205l-13.655,14.945l-9.999-6.338c-0.82-0.52-1.894-0.387-2.562,0.318l-12.501,13.186
			c-0.772,0.815-0.738,2.1,0.076,2.872c0.393,0.373,0.896,0.558,1.397,0.558c0.538,0,1.075-0.212,1.474-0.634l11.352-11.973
			l10.027,6.355c0.833,0.527,1.923,0.382,2.587-0.346l13.509-14.787l5.915,4.816c0.803,0.654,1.969,0.6,2.706-0.126l13.83-13.578
			l5.374,4.564c0.372,0.316,0.839,0.483,1.314,0.483c0.216,0,0.433-0.035,0.643-0.105c0.675-0.226,1.182-0.787,1.338-1.479
			l3.853-17.078C126.56,66.818,126.317,66.064,125.763,65.573z"/>
		<path style="fill:#FFDF8F;" d="M110.893,74.839c-0.344,0-0.671-0.204-0.813-0.541c-0.188-0.448,0.024-0.964,0.472-1.152
			l6.465-2.709c0.451-0.186,0.964,0.025,1.152,0.472c0.188,0.449-0.023,0.964-0.472,1.152l-6.464,2.708
			C111.121,74.816,111.006,74.839,110.893,74.839z"/>
		<path style="fill:#FFDF8F;" d="M120.907,70.623c-0.318,0-0.625-0.172-0.782-0.475c-0.224-0.432-0.055-0.963,0.376-1.187
			l1.666-0.864c0.433-0.222,0.963-0.054,1.187,0.377c0.223,0.432,0.055,0.962-0.377,1.187l-1.665,0.864
			C121.183,70.592,121.043,70.623,120.907,70.623z"/>
	</g>
	<g>
		
			<radialGradient id="SVGID_00000130617451886975932450000015425654511059206284_" cx="251" cy="289" r="171.0462" gradientUnits="userSpaceOnUse">
			<stop  offset="0" style="stop-color:#72E9C7"/>
			<stop  offset="1" style="stop-color:#72E9C7;stop-opacity:0"/>
		</radialGradient>
		<polygon style="opacity:0.5;fill:url(#SVGID_00000130617451886975932450000015425654511059206284_);" points="277.625,291 
			220.401,291 203.694,458 293.975,458 		"/>
		<g>
			<path style="fill:#ED5F3E;" d="M212.744,226.396c0,0-31.946,5.774-38.064,44.762c-6.118,38.989,10.179,45.164,12.994,44.449
				c2.816-0.714,5.192-47.021,38.827-44.739L212.744,226.396z"/>
			<path style="opacity:0.2;fill:#ED5F3E;" d="M212.744,226.396c0,0-8.754,1.593-17.975,8.693
				c1.874,8.113,2.885,16.411,2.146,24.694c-1.042,11.69-4.59,23.12-9.326,33.831c-2.513,5.685-5.419,11.133-8.683,16.326
				c3.467,4.892,7.495,5.99,8.768,5.667c2.816-0.714,5.192-47.021,38.827-44.739L212.744,226.396z"/>
			<path style="fill:#ED5F3E;" d="M283.652,226.396c0,0,31.946,5.774,38.064,44.762c6.117,38.989-10.179,45.164-12.994,44.449
				c-2.815-0.714-5.193-47.021-38.827-44.739L283.652,226.396z"/>
			<path style="opacity:0.2;fill:#ED5F3E;" d="M311.864,306.439c-7.245-21.751-8.258-43.728-4.33-65.981
				c-10.977-11.713-23.882-14.062-23.882-14.062l-13.758,44.472c33.634-2.282,36.012,44.025,38.827,44.739
				c0.9,0.228,3.179-0.255,5.662-2.282C313.472,311.044,312.631,308.741,311.864,306.439z"/>
			<path style="fill:#F98962;" d="M270.619,299.39c0,11.499-9.322,20.821-20.822,20.821c-11.499,0-20.821-9.322-20.821-20.821
				c0-11.5,9.322-20.822,20.821-20.822C261.297,278.567,270.619,287.89,270.619,299.39z"/>
			<path style="opacity:0.2;fill:#F98962;" d="M265.484,313.051c3.189-3.658,5.135-8.428,5.135-13.661
				c0-11.5-9.322-20.822-20.822-20.822c-11.499,0-20.821,9.322-20.821,20.822c0,5.532,2.175,10.546,5.695,14.273
				C244.378,306.452,256.26,307.204,265.484,313.051z"/>
			<path style="fill:#BC1E5E;" d="M250,61.295c-16.368,0-48,38.98-48,74.993s0,107.323,0,120.798
				c0,26.952,23.777,52.237,23.777,52.237s11.643-8.746,24.131-8.811c12.49,0.064,24.121,8.811,24.121,8.811
				S298,284.038,298,257.086c0-13.476,0-84.786,0-120.798S266.369,61.295,250,61.295z"/>
			<path style="opacity:0.2;fill:#BC1E5E;" d="M284.264,283.647c-14.123-24.308-26.5-50.266-36.019-76.724
				c-9.773-27.17-16.097-54.866-14.227-83.898c1.305-20.257,5.227-40.141,9.14-60.022c-17.079,7.876-41.604,41.718-41.604,73.285
				v120.798c0,26.952,23.999,52.237,23.999,52.237s11.754-8.746,24.242-8.811c12.49,0.064,24.243,8.811,24.243,8.811
				s7.41-7.784,14.012-19.312C286.768,287.899,285.502,285.777,284.264,283.647z"/>
			<circle style="fill:#493155;" cx="249.658" cy="145.338" r="31.453"/>
			<path style="fill:#F7DAF0;" d="M273.802,145.338c0,13.334-10.81,24.144-24.144,24.144c-13.335,0-24.144-10.81-24.144-24.144
				c0-13.334,10.809-24.144,24.144-24.144C262.992,121.194,273.802,132.004,273.802,145.338z"/>
			<path style="opacity:0.4;fill:#F7DAF0;" d="M254.327,161.235c-12.742-5.516-19.85-23.946-15.432-37.485
				c-7.925,3.959-13.381,12.128-13.381,21.589c0,13.334,10.809,24.144,24.144,24.144c6.516,0,12.418-2.593,16.762-6.789
				C262.81,163.491,258.765,163.156,254.327,161.235z"/>
			<path style="fill:#493155;" d="M234.203,231.112c0.281,4.627,11.464,78.77,15.678,78.82L249.842,310h0.002
				c0.001,0,0.156,0,0.156,0v-0.067c4-0.051,15.438-74.16,15.718-78.787c0.281-4.624-14.718-15.172-15.718-15.469v-0.142l0,0l0,0
				v0.142C249,215.974,233.923,226.488,234.203,231.112z"/>
			<path style="opacity:0.2;fill:#493155;" d="M247.443,262.907c-5.066-13.773-5.126-28.608-3.597-43.079
				c-4.522,3.542-9.891,8.488-9.721,11.284c0.281,4.627,11.502,78.703,15.716,78.754v0.001h0.004v-0.001
				c1.835-0.022,4.995-14.063,8.004-30.298C253.406,274.909,249.825,269.382,247.443,262.907z"/>
			<path style="opacity:0.5;fill:#553766;" d="M257.85,225.642c-5.715-1.831-6.69,33.922-2.406,34.101
				C259.728,259.922,264.542,227.786,257.85,225.642z"/>
			<path style="opacity:0.6;fill:#FF8092;" d="M287.714,120.361c-0.683,0-1.324-0.417-1.577-1.094
				c-3.759-10.035-8.417-19.814-13.847-29.065c-0.471-0.802-0.202-1.835,0.601-2.305c0.802-0.469,1.834-0.203,2.306,0.6
				c5.527,9.418,10.27,19.373,14.095,29.589c0.326,0.871-0.115,1.842-0.986,2.168C288.109,120.326,287.91,120.361,287.714,120.361z"
				/>
			<path style="opacity:0.6;fill:#FF8092;" d="M269.993,84.929c-0.553,0-1.095-0.272-1.417-0.772
				c-3.342-5.19-5.623-8.068-5.645-8.096c-0.578-0.728-0.458-1.788,0.27-2.367c0.73-0.579,1.788-0.458,2.367,0.27
				c0.097,0.122,2.408,3.039,5.84,8.369c0.504,0.782,0.278,1.824-0.504,2.328C270.622,84.842,270.307,84.929,269.993,84.929z"/>
			<path style="opacity:0.6;fill:#FFFFFF;" d="M266.002,137.698c-0.4,0-0.788-0.214-0.99-0.591
				c-3.047-5.666-8.93-9.185-15.354-9.185c-2.465,0-4.848,0.505-7.081,1.5c-0.565,0.25-1.23-0.003-1.483-0.569
				c-0.252-0.566,0.002-1.23,0.569-1.483c2.522-1.123,5.212-1.693,7.994-1.693c7.252,0,13.894,3.972,17.332,10.367
				c0.293,0.546,0.088,1.227-0.458,1.521C266.363,137.656,266.182,137.698,266.002,137.698z"/>
			<path style="opacity:0.6;fill:#FFFFFF;" d="M267.498,151.527c-0.103,0-0.205-0.014-0.308-0.044
				c-0.597-0.169-0.943-0.79-0.774-1.386c0.436-1.542,0.658-3.143,0.658-4.759c0-0.62,0.502-1.123,1.123-1.123
				s1.123,0.503,1.123,1.123c0,1.824-0.25,3.63-0.744,5.371C268.435,151.204,267.986,151.527,267.498,151.527z"/>
			<path style="opacity:0.6;fill:#69487A;" d="M272.612,161.352c-0.159,0-0.321-0.045-0.464-0.14
				c-0.389-0.257-0.494-0.78-0.236-1.168c2.889-4.365,4.417-9.451,4.417-14.707c0-0.465,0.377-0.842,0.842-0.842
				c0.465,0,0.843,0.377,0.843,0.842c0,5.588-1.624,10.995-4.698,15.637C273.154,161.22,272.885,161.352,272.612,161.352z"/>
			<path style="opacity:0.6;fill:#69487A;" d="M275.266,136.097c-0.336,0-0.653-0.202-0.784-0.534
				c-1.792-4.549-4.81-8.522-8.722-11.489c-4.665-3.537-10.233-5.407-16.102-5.407c-2.484,0-4.943,0.341-7.308,1.013
				c-0.449,0.126-0.913-0.132-1.04-0.58c-0.127-0.448,0.132-0.913,0.58-1.041c2.515-0.715,5.128-1.077,7.768-1.077
				c6.24,0,12.16,1.987,17.119,5.749c4.159,3.154,7.365,7.378,9.272,12.214c0.171,0.433-0.042,0.922-0.475,1.092
				C275.473,136.079,275.368,136.097,275.266,136.097z"/>
		</g>
		<g>
			<path style="fill:none;stroke:#FFFFFF;stroke-linecap:round;stroke-linejoin:round;stroke-miterlimit:10;" d="M196.03,121.194
				c0,0-1.707,12.056-1.619,19.806"/>
			<path style="fill:none;stroke:#FFFFFF;stroke-linecap:round;stroke-linejoin:round;stroke-miterlimit:10;" d="M307,233
				c0,0,15.559,15.305,18.029,38.027"/>
			<path style="fill:none;stroke:#FFFFFF;stroke-linecap:round;stroke-linejoin:round;stroke-miterlimit:10;" d="M326.029,276
				c0,0,1.029,7,0,15"/>
			<path style="fill:none;stroke:#FFFFFF;stroke-linecap:round;stroke-linejoin:round;stroke-miterlimit:10;" d="M250,57
				c0,0,15.693,0.667,28.014,18.334"/>
			<g>
				<path style="fill:none;stroke:#FFFFFF;stroke-linecap:round;stroke-linejoin:round;stroke-miterlimit:10;" d="M180.5,315.659
					c0,0,7,4.591,9,2.591"/>
				
					<line style="fill:none;stroke:#FFFFFF;stroke-linecap:round;stroke-linejoin:round;stroke-miterlimit:10;" x1="192.5" y1="309.867" x2="191.25" y2="315.659"/>
			</g>
			<path style="fill:none;stroke:#FFFFFF;stroke-linecap:round;stroke-linejoin:round;stroke-miterlimit:10;" d="M199.909,116.983
				c0,0-2.401,2.04-2.261,86.35"/>
		</g>
	</g>
	<text transform="matrix(1 0 0 1 152.0757 380)"><tspan x="0" y="0" style="fill:#FFFFFF; font-family:'GalanoGrotesqueAltDEMO-Bold'; font-size:50px; letter-spacing:15;">start</tspan><tspan x="58.95" y="50" style="fill:#FFFFFF; font-family:'GalanoGrotesqueAltDEMO-Bold'; font-size:50px; letter-spacing:15;">up</tspan></text>
</g>
<g id="DESIGNED_BY_FREEPIK">
	<g>
		<g>
			<path style="fill:#FFFFFF;" d="M179.552,473.293v-0.161c-0.218,0.249-0.433,0.452-0.645,0.608
				c-0.211,0.156-0.441,0.275-0.688,0.357c-0.248,0.082-0.517,0.122-0.81,0.122c-0.388,0-0.748-0.082-1.078-0.246
				c-0.33-0.164-0.616-0.399-0.857-0.704c-0.242-0.305-0.425-0.662-0.549-1.074c-0.124-0.412-0.187-0.856-0.187-1.335
				c0-1.014,0.248-1.804,0.742-2.37c0.495-0.564,1.146-0.848,1.953-0.848c0.466,0,0.86,0.08,1.181,0.239
				c0.32,0.161,0.633,0.408,0.938,0.739v-2.392c0-0.333,0.066-0.584,0.199-0.754c0.132-0.17,0.321-0.255,0.567-0.255
				c0.245,0,0.434,0.078,0.567,0.234c0.132,0.156,0.199,0.386,0.199,0.691v7.147c0,0.309-0.071,0.54-0.214,0.694
				c-0.142,0.153-0.326,0.232-0.552,0.232c-0.222,0-0.405-0.08-0.549-0.24C179.623,473.817,179.552,473.589,179.552,473.293z
				 M176.364,470.912c0,0.439,0.068,0.813,0.205,1.122c0.137,0.309,0.324,0.541,0.561,0.696c0.238,0.157,0.497,0.236,0.778,0.236
				c0.285,0,0.545-0.075,0.781-0.224c0.235-0.147,0.423-0.376,0.563-0.682c0.141-0.308,0.211-0.691,0.211-1.149
				c0-0.432-0.07-0.803-0.211-1.114c-0.14-0.31-0.33-0.547-0.57-0.712c-0.239-0.164-0.501-0.245-0.786-0.245
				c-0.297,0-0.562,0.084-0.795,0.252c-0.234,0.168-0.415,0.409-0.544,0.724C176.428,470.132,176.364,470.496,176.364,470.912z"/>
			<path style="fill:#FFFFFF;" d="M186.698,471.322h-3.169c0.004,0.367,0.078,0.692,0.223,0.973
				c0.144,0.281,0.336,0.493,0.575,0.636c0.24,0.143,0.504,0.213,0.793,0.213c0.193,0,0.371-0.022,0.531-0.067
				c0.16-0.046,0.315-0.116,0.466-0.214c0.15-0.097,0.289-0.201,0.415-0.311c0.126-0.111,0.291-0.263,0.493-0.452
				c0.083-0.071,0.202-0.106,0.357-0.106c0.166,0,0.3,0.046,0.403,0.137c0.102,0.092,0.155,0.22,0.155,0.386
				c0,0.147-0.058,0.317-0.172,0.514c-0.116,0.195-0.289,0.384-0.52,0.564c-0.232,0.181-0.522,0.329-0.873,0.448
				c-0.35,0.119-0.752,0.179-1.208,0.179c-1.04,0-1.85-0.298-2.427-0.891c-0.578-0.594-0.867-1.399-0.867-2.416
				c0-0.48,0.071-0.924,0.213-1.332c0.143-0.41,0.351-0.762,0.623-1.055c0.273-0.293,0.609-0.517,1.01-0.674
				c0.399-0.156,0.843-0.233,1.33-0.233c0.633,0,1.176,0.132,1.629,0.4c0.454,0.267,0.793,0.612,1.019,1.035
				c0.225,0.424,0.338,0.855,0.338,1.294c0,0.408-0.117,0.672-0.35,0.793C187.451,471.261,187.122,471.322,186.698,471.322z
				 M183.528,470.401h2.939c-0.039-0.554-0.189-0.969-0.449-1.243c-0.259-0.275-0.6-0.413-1.024-0.413
				c-0.403,0-0.735,0.14-0.994,0.418C183.741,469.442,183.584,469.855,183.528,470.401z"/>
			<path style="fill:#FFFFFF;" d="M194.082,472.099c0,0.447-0.108,0.831-0.327,1.149c-0.217,0.318-0.539,0.561-0.964,0.725
				c-0.425,0.164-0.943,0.246-1.552,0.246c-0.582,0-1.081-0.09-1.496-0.268c-0.416-0.178-0.722-0.401-0.92-0.667
				c-0.198-0.269-0.297-0.535-0.297-0.806c0-0.178,0.063-0.33,0.19-0.456c0.126-0.126,0.287-0.19,0.481-0.19
				c0.169,0,0.3,0.042,0.391,0.125c0.091,0.083,0.178,0.2,0.261,0.35c0.167,0.29,0.366,0.504,0.597,0.647
				c0.231,0.143,0.547,0.214,0.947,0.214c0.324,0,0.59-0.072,0.798-0.217c0.208-0.146,0.311-0.31,0.311-0.496
				c0-0.285-0.107-0.492-0.323-0.623c-0.216-0.13-0.571-0.256-1.066-0.374c-0.558-0.139-1.012-0.284-1.362-0.436
				c-0.35-0.151-0.63-0.354-0.84-0.602c-0.21-0.25-0.314-0.557-0.314-0.921c0-0.324,0.097-0.631,0.29-0.92
				c0.194-0.288,0.48-0.52,0.859-0.691c0.377-0.173,0.833-0.259,1.367-0.259c0.419,0,0.797,0.043,1.131,0.131
				c0.334,0.087,0.614,0.204,0.837,0.351c0.224,0.146,0.394,0.309,0.51,0.486c0.117,0.178,0.175,0.352,0.175,0.522
				c0,0.186-0.063,0.339-0.186,0.457c-0.125,0.118-0.301,0.179-0.532,0.179c-0.166,0-0.308-0.048-0.424-0.144
				c-0.117-0.095-0.251-0.236-0.401-0.427c-0.122-0.158-0.267-0.285-0.433-0.38c-0.167-0.096-0.392-0.143-0.677-0.143
				c-0.293,0-0.536,0.061-0.73,0.188c-0.194,0.124-0.29,0.279-0.29,0.465c0,0.171,0.071,0.31,0.213,0.419
				c0.143,0.109,0.334,0.2,0.576,0.271c0.242,0.07,0.573,0.157,0.997,0.261c0.502,0.123,0.913,0.27,1.232,0.44
				c0.318,0.17,0.56,0.371,0.725,0.603C194,471.538,194.082,471.802,194.082,472.099z"/>
			<path style="fill:#FFFFFF;" d="M195.738,466.876c-0.226,0-0.419-0.069-0.579-0.208c-0.16-0.139-0.24-0.334-0.24-0.588
				c0-0.23,0.082-0.418,0.247-0.567c0.164-0.148,0.355-0.223,0.573-0.223c0.21,0,0.395,0.067,0.558,0.202
				c0.163,0.135,0.244,0.33,0.244,0.588c0,0.249-0.08,0.444-0.238,0.585C196.143,466.805,195.955,466.876,195.738,466.876z
				 M196.539,468.55v4.683c0,0.325-0.077,0.571-0.232,0.737c-0.155,0.166-0.35,0.249-0.588,0.249c-0.238,0-0.431-0.085-0.579-0.256
				c-0.149-0.17-0.223-0.413-0.223-0.73v-4.636c0-0.32,0.074-0.562,0.223-0.725c0.148-0.162,0.341-0.243,0.579-0.243
				c0.238,0,0.433,0.081,0.588,0.243C196.462,468.035,196.539,468.261,196.539,468.55z"/>
			<path style="fill:#FFFFFF;" d="M203.639,468.816v4.707c0,0.539-0.058,1.002-0.173,1.39c-0.114,0.388-0.298,0.708-0.552,0.962
				c-0.253,0.253-0.585,0.441-0.994,0.564c-0.41,0.123-0.919,0.184-1.529,0.184c-0.558,0-1.057-0.078-1.496-0.233
				c-0.439-0.157-0.777-0.359-1.015-0.605c-0.237-0.248-0.357-0.502-0.357-0.764c0-0.197,0.067-0.359,0.202-0.483
				c0.134-0.125,0.297-0.188,0.487-0.188c0.237,0,0.445,0.105,0.624,0.314c0.087,0.107,0.176,0.216,0.27,0.324
				c0.093,0.109,0.196,0.202,0.309,0.279c0.113,0.076,0.249,0.134,0.407,0.172c0.158,0.036,0.341,0.056,0.546,0.056
				c0.419,0,0.745-0.058,0.977-0.175c0.232-0.116,0.394-0.28,0.487-0.49c0.093-0.208,0.147-0.433,0.163-0.673
				c0.016-0.24,0.027-0.625,0.035-1.155c-0.25,0.349-0.537,0.614-0.864,0.796c-0.326,0.183-0.715,0.273-1.166,0.273
				c-0.542,0-1.016-0.139-1.422-0.416c-0.405-0.277-0.717-0.665-0.934-1.163c-0.218-0.499-0.326-1.074-0.326-1.728
				c0-0.486,0.066-0.927,0.198-1.317c0.133-0.393,0.322-0.723,0.567-0.992c0.245-0.269,0.528-0.472,0.849-0.608
				c0.32-0.137,0.673-0.204,1.057-0.204c0.459,0,0.857,0.088,1.193,0.263c0.336,0.178,0.649,0.453,0.938,0.829v-0.22
				c0-0.281,0.069-0.498,0.207-0.653c0.139-0.154,0.317-0.232,0.535-0.232c0.313,0,0.52,0.103,0.623,0.306
				C203.587,468.139,203.639,468.433,203.639,468.816z M198.943,470.871c0,0.656,0.143,1.153,0.43,1.489
				c0.287,0.337,0.658,0.505,1.113,0.505c0.269,0,0.523-0.072,0.762-0.217c0.24-0.145,0.435-0.362,0.586-0.653
				c0.149-0.291,0.225-0.643,0.225-1.06c0-0.66-0.145-1.175-0.436-1.543c-0.291-0.368-0.674-0.552-1.149-0.552
				c-0.463,0-0.834,0.176-1.112,0.528C199.082,469.721,198.943,470.222,198.943,470.871z"/>
			<path style="fill:#FFFFFF;" d="M206.214,468.525v0.196c0.285-0.376,0.597-0.652,0.934-0.828c0.339-0.176,0.727-0.265,1.167-0.265
				c0.428,0,0.81,0.094,1.146,0.279c0.336,0.186,0.588,0.449,0.753,0.789c0.108,0.198,0.177,0.412,0.208,0.642
				c0.032,0.229,0.048,0.522,0.048,0.879v3.015c0,0.325-0.075,0.571-0.223,0.737c-0.148,0.166-0.341,0.249-0.579,0.249
				c-0.242,0-0.438-0.085-0.588-0.256c-0.151-0.17-0.226-0.413-0.226-0.73v-2.7c0-0.534-0.074-0.943-0.223-1.226
				c-0.149-0.283-0.444-0.425-0.888-0.425c-0.289,0-0.552,0.086-0.789,0.258c-0.237,0.173-0.412,0.409-0.522,0.71
				c-0.079,0.241-0.119,0.692-0.119,1.352v2.03c0,0.328-0.076,0.576-0.228,0.74c-0.152,0.164-0.349,0.246-0.59,0.246
				c-0.234,0-0.426-0.085-0.576-0.256c-0.15-0.17-0.226-0.413-0.226-0.73v-4.683c0-0.31,0.067-0.54,0.202-0.692
				c0.134-0.152,0.318-0.228,0.552-0.228c0.143,0,0.271,0.033,0.387,0.102c0.114,0.067,0.207,0.168,0.276,0.302
				C206.179,468.167,206.214,468.332,206.214,468.525z"/>
			<path style="fill:#FFFFFF;" d="M216.073,471.322h-3.17c0.004,0.367,0.078,0.692,0.223,0.973c0.144,0.281,0.336,0.493,0.576,0.636
				c0.239,0.143,0.503,0.213,0.792,0.213c0.194,0,0.371-0.022,0.532-0.067c0.16-0.046,0.315-0.116,0.466-0.214
				c0.15-0.097,0.288-0.201,0.416-0.311c0.126-0.111,0.29-0.263,0.492-0.452c0.083-0.071,0.202-0.106,0.356-0.106
				c0.167,0,0.301,0.046,0.404,0.137c0.103,0.092,0.154,0.22,0.154,0.386c0,0.147-0.057,0.317-0.172,0.514
				c-0.115,0.195-0.288,0.384-0.52,0.564c-0.232,0.181-0.522,0.329-0.872,0.448c-0.351,0.119-0.753,0.179-1.209,0.179
				c-1.04,0-1.85-0.298-2.428-0.891c-0.577-0.594-0.866-1.399-0.866-2.416c0-0.48,0.071-0.924,0.213-1.332
				c0.143-0.41,0.351-0.762,0.624-1.055c0.272-0.293,0.609-0.517,1.009-0.674c0.399-0.156,0.843-0.233,1.33-0.233
				c0.633,0,1.175,0.132,1.628,0.4c0.454,0.267,0.793,0.612,1.019,1.035c0.225,0.424,0.338,0.855,0.338,1.294
				c0,0.408-0.117,0.672-0.351,0.793C216.826,471.261,216.497,471.322,216.073,471.322z M212.903,470.401h2.939
				c-0.04-0.554-0.189-0.969-0.448-1.243c-0.259-0.275-0.601-0.413-1.024-0.413c-0.404,0-0.736,0.14-0.995,0.418
				C213.115,469.442,212.959,469.855,212.903,470.401z"/>
			<path style="fill:#FFFFFF;" d="M222.679,473.293v-0.161c-0.218,0.249-0.432,0.452-0.644,0.608
				c-0.212,0.156-0.441,0.275-0.688,0.357c-0.247,0.082-0.517,0.122-0.81,0.122c-0.388,0-0.747-0.082-1.078-0.246
				c-0.33-0.164-0.616-0.399-0.858-0.704c-0.242-0.305-0.424-0.662-0.549-1.074c-0.124-0.412-0.187-0.856-0.187-1.335
				c0-1.014,0.247-1.804,0.742-2.37c0.495-0.564,1.146-0.848,1.954-0.848c0.467,0,0.861,0.08,1.181,0.239
				c0.32,0.161,0.633,0.408,0.938,0.739v-2.392c0-0.333,0.066-0.584,0.199-0.754c0.132-0.17,0.322-0.255,0.567-0.255
				c0.245,0,0.434,0.078,0.567,0.234c0.132,0.156,0.199,0.386,0.199,0.691v7.147c0,0.309-0.071,0.54-0.213,0.694
				c-0.143,0.153-0.326,0.232-0.552,0.232c-0.222,0-0.404-0.08-0.549-0.24C222.751,473.817,222.679,473.589,222.679,473.293z
				 M219.492,470.912c0,0.439,0.068,0.813,0.205,1.122c0.137,0.309,0.324,0.541,0.562,0.696c0.237,0.157,0.496,0.236,0.777,0.236
				c0.286,0,0.546-0.075,0.781-0.224c0.236-0.147,0.424-0.376,0.564-0.682c0.141-0.308,0.211-0.691,0.211-1.149
				c0-0.432-0.07-0.803-0.211-1.114c-0.14-0.31-0.33-0.547-0.57-0.712c-0.24-0.164-0.501-0.245-0.787-0.245
				c-0.296,0-0.562,0.084-0.795,0.252c-0.233,0.168-0.414,0.409-0.543,0.724C219.556,470.132,219.492,470.496,219.492,470.912z"/>
			<path style="fill:#FFFFFF;" d="M229.303,466.146v2.475c0.304-0.316,0.615-0.559,0.932-0.727c0.316-0.168,0.708-0.252,1.176-0.252
				c0.538,0,1.01,0.127,1.416,0.382c0.405,0.256,0.719,0.626,0.943,1.11c0.224,0.484,0.336,1.06,0.336,1.726
				c0,0.49-0.063,0.939-0.187,1.35c-0.125,0.409-0.306,0.765-0.543,1.065c-0.238,0.301-0.525,0.534-0.864,0.698
				c-0.339,0.164-0.711,0.246-1.119,0.246c-0.249,0-0.484-0.029-0.703-0.09c-0.22-0.059-0.407-0.137-0.562-0.234
				c-0.154-0.096-0.286-0.196-0.395-0.299c-0.109-0.104-0.252-0.258-0.43-0.464v0.161c0,0.304-0.074,0.535-0.22,0.691
				c-0.146,0.156-0.332,0.234-0.558,0.234c-0.23,0-0.413-0.078-0.549-0.234c-0.136-0.156-0.205-0.388-0.205-0.691v-7.077
				c0-0.328,0.066-0.577,0.199-0.744c0.132-0.168,0.318-0.252,0.555-0.252c0.249,0,0.441,0.079,0.576,0.239
				C229.235,465.62,229.303,465.848,229.303,466.146z M229.38,470.96c0,0.645,0.147,1.14,0.442,1.486
				c0.295,0.347,0.682,0.521,1.161,0.521c0.407,0,0.759-0.178,1.053-0.532c0.295-0.354,0.442-0.861,0.442-1.522
				c0-0.428-0.06-0.796-0.184-1.105c-0.123-0.309-0.297-0.547-0.522-0.715c-0.226-0.168-0.489-0.252-0.79-0.252
				c-0.309,0-0.584,0.084-0.825,0.252c-0.241,0.168-0.431,0.411-0.57,0.729C229.45,470.141,229.38,470.521,229.38,470.96z"/>
			<path style="fill:#FFFFFF;" d="M236.206,474.42l0.148-0.362l-1.995-5.021c-0.123-0.288-0.185-0.499-0.185-0.63
				c0-0.139,0.036-0.267,0.107-0.385c0.071-0.119,0.169-0.214,0.294-0.285c0.125-0.072,0.254-0.107,0.389-0.107
				c0.233,0,0.409,0.074,0.528,0.223c0.119,0.148,0.224,0.361,0.314,0.638l1.372,3.989l1.3-3.71c0.103-0.3,0.196-0.536,0.279-0.706
				c0.083-0.171,0.171-0.285,0.264-0.344c0.093-0.06,0.225-0.09,0.395-0.09c0.123,0,0.241,0.032,0.353,0.099
				c0.112,0.065,0.2,0.153,0.261,0.264c0.061,0.11,0.093,0.228,0.093,0.351c-0.017,0.074-0.042,0.182-0.078,0.32
				c-0.036,0.139-0.079,0.279-0.13,0.422l-2.113,5.532c-0.183,0.486-0.36,0.868-0.535,1.145c-0.174,0.276-0.404,0.49-0.691,0.638
				c-0.288,0.149-0.674,0.223-1.161,0.223c-0.475,0-0.831-0.051-1.068-0.153c-0.238-0.104-0.356-0.292-0.356-0.565
				c0-0.185,0.056-0.33,0.169-0.431c0.112-0.101,0.28-0.151,0.501-0.151c0.087,0,0.173,0.012,0.256,0.036
				c0.103,0.023,0.192,0.035,0.267,0.035c0.186,0,0.333-0.027,0.44-0.083c0.106-0.056,0.202-0.151,0.288-0.288
				C235.998,474.887,236.096,474.685,236.206,474.42z"/>
		</g>
		<g>
			<path style="fill:#FFFFFF;" d="M259.684,467.77h0.386v-0.486c0-0.51,0.063-0.911,0.192-1.211c0.127-0.3,0.347-0.517,0.654-0.653
				c0.307-0.136,0.727-0.204,1.26-0.204c0.95,0,1.421,0.229,1.421,0.696c0,0.149-0.05,0.278-0.15,0.385
				c-0.097,0.105-0.214,0.16-0.349,0.16c-0.063,0-0.174-0.012-0.329-0.037c-0.148-0.021-0.283-0.035-0.39-0.035
				c-0.293,0-0.479,0.088-0.565,0.26c-0.08,0.172-0.123,0.418-0.123,0.74v0.386h0.395c0.62,0,0.927,0.186,0.927,0.56
				c0,0.262-0.08,0.432-0.246,0.503c-0.163,0.071-0.39,0.107-0.681,0.107h-0.395v4.295c0,0.319-0.074,0.563-0.23,0.729
				c-0.15,0.171-0.346,0.254-0.589,0.254c-0.229,0-0.419-0.083-0.573-0.254c-0.153-0.167-0.229-0.41-0.229-0.729v-4.295h-0.445
				c-0.243,0-0.427-0.052-0.559-0.163c-0.131-0.107-0.197-0.25-0.197-0.424C258.868,467.962,259.141,467.77,259.684,467.77"/>
			<path style="fill:#FFFFFF;" d="M264.989,471.878v1.355c0,0.327-0.083,0.574-0.233,0.737c-0.155,0.166-0.35,0.246-0.586,0.246
				c-0.239,0-0.43-0.081-0.58-0.25c-0.147-0.165-0.225-0.41-0.225-0.733v-4.515c0-0.729,0.263-1.093,0.788-1.093
				c0.271,0,0.464,0.084,0.583,0.255c0.119,0.171,0.185,0.421,0.198,0.755c0.192-0.334,0.391-0.584,0.593-0.755
				c0.208-0.171,0.477-0.255,0.818-0.255c0.344,0,0.671,0.084,0.991,0.255c0.322,0.171,0.482,0.398,0.482,0.679
				c0,0.196-0.068,0.362-0.203,0.488c-0.138,0.13-0.284,0.194-0.441,0.194c-0.063,0-0.207-0.039-0.433-0.112
				c-0.228-0.071-0.431-0.108-0.602-0.108c-0.237,0-0.433,0.064-0.582,0.186c-0.151,0.128-0.268,0.311-0.352,0.554
				c-0.081,0.247-0.137,0.541-0.17,0.878C265.003,470.978,264.989,471.392,264.989,471.878"/>
			<path style="fill:#FFFFFF;" d="M272.439,471.32h-3.171c0.005,0.367,0.077,0.694,0.222,0.975c0.146,0.278,0.337,0.491,0.578,0.635
				c0.24,0.143,0.502,0.213,0.792,0.213c0.194,0,0.371-0.022,0.531-0.07c0.159-0.043,0.315-0.115,0.466-0.213
				c0.151-0.095,0.287-0.198,0.415-0.313c0.126-0.108,0.292-0.26,0.494-0.449c0.084-0.07,0.202-0.108,0.354-0.108
				c0.168,0,0.302,0.047,0.406,0.139c0.104,0.092,0.152,0.219,0.152,0.386c0,0.147-0.056,0.317-0.168,0.512
				c-0.117,0.198-0.289,0.386-0.522,0.566c-0.233,0.179-0.523,0.33-0.873,0.446c-0.35,0.119-0.754,0.179-1.207,0.179
				c-1.045,0-1.853-0.295-2.43-0.889c-0.577-0.595-0.869-1.401-0.869-2.417c0-0.479,0.073-0.925,0.217-1.335
				c0.141-0.411,0.349-0.76,0.625-1.054c0.272-0.295,0.605-0.519,1.007-0.675c0.399-0.155,0.842-0.233,1.33-0.233
				c0.632,0,1.176,0.134,1.629,0.403c0.453,0.265,0.797,0.61,1.018,1.034c0.226,0.426,0.339,0.855,0.339,1.296
				c0,0.405-0.118,0.669-0.352,0.791C273.191,471.26,272.863,471.32,272.439,471.32 M269.269,470.398h2.938
				c-0.039-0.553-0.187-0.969-0.446-1.241c-0.262-0.276-0.6-0.412-1.025-0.412c-0.403,0-0.735,0.137-0.995,0.418
				C269.481,469.441,269.322,469.853,269.269,470.398"/>
			<path style="fill:#FFFFFF;" d="M279.182,471.32h-3.171c0.004,0.367,0.078,0.694,0.222,0.975c0.145,0.278,0.337,0.491,0.575,0.635
				c0.24,0.143,0.504,0.213,0.795,0.213c0.192,0,0.371-0.022,0.528-0.07c0.162-0.043,0.316-0.115,0.469-0.213
				c0.151-0.095,0.287-0.198,0.415-0.313c0.124-0.108,0.29-0.26,0.492-0.449c0.084-0.07,0.204-0.108,0.355-0.108
				c0.168,0,0.302,0.047,0.406,0.139c0.104,0.092,0.15,0.219,0.15,0.386c0,0.147-0.055,0.317-0.171,0.512
				c-0.11,0.198-0.284,0.386-0.518,0.566c-0.232,0.179-0.525,0.33-0.872,0.446c-0.349,0.119-0.755,0.179-1.21,0.179
				c-1.041,0-1.849-0.295-2.429-0.889c-0.577-0.595-0.868-1.401-0.868-2.417c0-0.479,0.073-0.925,0.218-1.335
				c0.142-0.411,0.349-0.76,0.622-1.054c0.272-0.295,0.608-0.519,1.009-0.675c0.398-0.155,0.845-0.233,1.331-0.233
				c0.63,0,1.174,0.134,1.633,0.403c0.45,0.265,0.791,0.61,1.014,1.034c0.225,0.426,0.341,0.855,0.341,1.296
				c0,0.405-0.12,0.669-0.352,0.791C279.932,471.26,279.604,471.32,279.182,471.32 M276.011,470.398h2.939
				c-0.04-0.553-0.189-0.969-0.447-1.241c-0.263-0.276-0.601-0.412-1.026-0.412c-0.403,0-0.734,0.137-0.995,0.418
				C276.223,469.441,276.063,469.853,276.011,470.398"/>
			<path style="fill:#FFFFFF;" d="M282.731,468.538v0.193c0.304-0.375,0.621-0.65,0.953-0.827c0.324-0.178,0.698-0.267,1.113-0.267
				c0.497,0,0.96,0.13,1.38,0.386c0.419,0.259,0.749,0.635,0.993,1.129c0.243,0.497,0.366,1.081,0.366,1.759
				c0,0.497-0.07,0.957-0.21,1.375c-0.14,0.418-0.336,0.767-0.581,1.05c-0.246,0.282-0.534,0.502-0.868,0.654
				c-0.339,0.15-0.694,0.227-1.08,0.227c-0.461,0-0.853-0.093-1.165-0.279c-0.314-0.183-0.614-0.458-0.901-0.816v2.434
				c0,0.709-0.26,1.068-0.777,1.068c-0.307,0-0.506-0.092-0.607-0.274c-0.095-0.186-0.145-0.452-0.145-0.807v-6.996
				c0-0.31,0.066-0.537,0.2-0.692c0.134-0.149,0.319-0.227,0.553-0.227c0.23,0,0.416,0.078,0.56,0.233
				C282.661,468.019,282.731,468.241,282.731,468.538 M285.909,470.893c0-0.428-0.066-0.796-0.196-1.102
				c-0.131-0.308-0.313-0.542-0.542-0.705c-0.23-0.164-0.488-0.248-0.771-0.248c-0.445,0-0.823,0.178-1.13,0.527
				c-0.308,0.354-0.462,0.872-0.462,1.559c0,0.642,0.152,1.146,0.46,1.504c0.304,0.358,0.678,0.536,1.132,0.536
				c0.268,0,0.52-0.078,0.749-0.232c0.232-0.158,0.415-0.392,0.552-0.704C285.84,471.714,285.909,471.335,285.909,470.893"/>
			<path style="fill:#FFFFFF;" d="M289.169,466.871c-0.227,0-0.418-0.071-0.577-0.209c-0.162-0.139-0.242-0.333-0.242-0.585
				c0-0.23,0.082-0.419,0.248-0.569c0.163-0.147,0.354-0.222,0.571-0.222c0.212,0,0.397,0.066,0.559,0.199
				c0.162,0.137,0.244,0.334,0.244,0.592c0,0.249-0.079,0.444-0.236,0.584C289.576,466.8,289.389,466.871,289.169,466.871
				 M289.972,468.546v4.689c0,0.322-0.077,0.567-0.231,0.732c-0.156,0.169-0.351,0.25-0.588,0.25c-0.238,0-0.429-0.083-0.58-0.254
				c-0.147-0.173-0.223-0.415-0.223-0.728v-4.643c0-0.318,0.076-0.559,0.223-0.721c0.151-0.166,0.342-0.245,0.58-0.245
				c0.237,0,0.432,0.079,0.588,0.245C289.895,468.033,289.972,468.26,289.972,468.546"/>
			<path style="fill:#FFFFFF;" d="M295.196,473.478l-1.428-2.354l-0.88,0.83v1.291c0,0.312-0.083,0.551-0.248,0.718
				c-0.16,0.171-0.354,0.254-0.566,0.254c-0.249,0-0.447-0.081-0.588-0.25c-0.142-0.165-0.215-0.41-0.215-0.733v-6.915
				c0-0.358,0.071-0.632,0.207-0.82c0.139-0.19,0.341-0.283,0.596-0.283c0.25,0,0.445,0.086,0.594,0.257
				c0.145,0.169,0.221,0.422,0.221,0.752v3.933l1.822-1.914c0.227-0.234,0.396-0.4,0.517-0.486c0.119-0.087,0.262-0.13,0.432-0.13
				c0.203,0,0.371,0.064,0.509,0.192c0.133,0.129,0.2,0.292,0.2,0.483c0,0.237-0.221,0.556-0.659,0.951l-0.86,0.789l1.662,2.614
				c0.121,0.196,0.212,0.34,0.265,0.441c0.053,0.1,0.081,0.199,0.081,0.289c0,0.258-0.071,0.459-0.213,0.609
				c-0.14,0.147-0.327,0.221-0.554,0.221c-0.197,0-0.352-0.051-0.458-0.159C295.525,473.949,295.377,473.755,295.196,473.478"/>
			<path style="fill:#FFFFFF;" d="M298.719,474.217c-0.245,0-0.455-0.078-0.634-0.237c-0.178-0.156-0.268-0.379-0.268-0.666
				c0-0.241,0.086-0.449,0.256-0.622c0.172-0.174,0.38-0.262,0.63-0.262c0.248,0,0.46,0.088,0.639,0.258
				c0.175,0.172,0.264,0.383,0.264,0.626c0,0.283-0.089,0.505-0.264,0.662C299.163,474.139,298.955,474.217,298.719,474.217"/>
			<path style="fill:#FFFFFF;" d="M306.78,472.211c0,0.2-0.061,0.417-0.183,0.646c-0.119,0.232-0.305,0.448-0.553,0.656
				c-0.247,0.207-0.558,0.376-0.935,0.502c-0.376,0.126-0.801,0.191-1.27,0.191c-1.004,0-1.786-0.293-2.349-0.876
				c-0.56-0.584-0.841-1.368-0.841-2.35c0-0.667,0.128-1.253,0.387-1.765c0.255-0.51,0.628-0.904,1.113-1.184
				c0.487-0.28,1.072-0.419,1.746-0.419c0.422,0,0.806,0.062,1.158,0.185c0.351,0.122,0.646,0.282,0.891,0.474
				c0.242,0.197,0.429,0.402,0.556,0.62c0.13,0.221,0.192,0.426,0.192,0.617c0,0.192-0.07,0.357-0.214,0.492
				c-0.147,0.135-0.322,0.203-0.524,0.203c-0.137,0-0.248-0.036-0.338-0.105c-0.09-0.07-0.191-0.181-0.3-0.339
				c-0.198-0.299-0.403-0.525-0.622-0.674c-0.214-0.152-0.487-0.227-0.821-0.227c-0.476,0-0.864,0.187-1.158,0.561
				c-0.292,0.373-0.44,0.888-0.44,1.534c0,0.305,0.039,0.587,0.114,0.842c0.073,0.255,0.182,0.473,0.325,0.653
				c0.145,0.179,0.315,0.315,0.517,0.408c0.202,0.096,0.425,0.142,0.664,0.142c0.326,0,0.605-0.075,0.836-0.226
				c0.235-0.15,0.439-0.38,0.616-0.689c0.1-0.182,0.205-0.323,0.318-0.427c0.114-0.102,0.256-0.155,0.422-0.155
				c0.198,0,0.363,0.076,0.492,0.227C306.714,471.88,306.78,472.042,306.78,472.211"/>
			<path style="fill:#FFFFFF;" d="M313.774,470.923c0,0.481-0.076,0.928-0.223,1.337c-0.154,0.408-0.37,0.758-0.656,1.049
				c-0.284,0.293-0.626,0.518-1.019,0.676c-0.399,0.154-0.844,0.234-1.337,0.234c-0.49,0-0.934-0.08-1.325-0.239
				c-0.39-0.156-0.733-0.384-1.017-0.677c-0.288-0.298-0.506-0.646-0.657-1.048c-0.144-0.402-0.22-0.847-0.22-1.332
				c0-0.491,0.078-0.941,0.225-1.349c0.151-0.409,0.368-0.758,0.649-1.046c0.282-0.288,0.62-0.511,1.02-0.669
				c0.401-0.155,0.843-0.233,1.325-0.233c0.49,0,0.936,0.078,1.337,0.238c0.398,0.157,0.739,0.384,1.027,0.675
				c0.286,0.297,0.501,0.643,0.649,1.045C313.699,469.991,313.774,470.435,313.774,470.923 M312.146,470.923
				c0-0.661-0.146-1.176-0.436-1.543c-0.289-0.372-0.681-0.555-1.171-0.555c-0.317,0-0.597,0.083-0.839,0.246
				c-0.242,0.163-0.426,0.406-0.557,0.728c-0.13,0.321-0.196,0.695-0.196,1.124c0,0.425,0.063,0.792,0.193,1.108
				c0.13,0.319,0.314,0.56,0.553,0.728c0.241,0.167,0.522,0.253,0.846,0.253c0.49,0,0.882-0.185,1.171-0.557
				C312,472.086,312.146,471.573,312.146,470.923"/>
			<path style="fill:#FFFFFF;" d="M319.956,471.042v2.154c0,0.342-0.075,0.594-0.23,0.767c-0.156,0.171-0.357,0.256-0.611,0.256
				c-0.245,0-0.446-0.085-0.594-0.256c-0.155-0.173-0.233-0.425-0.233-0.767v-2.582c0-0.408-0.013-0.727-0.039-0.953
				c-0.028-0.221-0.105-0.409-0.227-0.552c-0.123-0.147-0.318-0.22-0.582-0.22c-0.531,0-0.879,0.182-1.048,0.551
				c-0.167,0.36-0.254,0.883-0.254,1.566v2.189c0,0.336-0.076,0.591-0.226,0.765c-0.155,0.171-0.354,0.258-0.603,0.258
				c-0.247,0-0.447-0.087-0.604-0.258c-0.157-0.174-0.235-0.429-0.235-0.765v-4.637c0-0.307,0.069-0.538,0.21-0.695
				c0.143-0.16,0.328-0.238,0.556-0.238c0.223,0,0.407,0.077,0.558,0.222c0.147,0.149,0.221,0.354,0.221,0.615v0.153
				c0.283-0.334,0.584-0.582,0.903-0.737c0.322-0.162,0.676-0.241,1.07-0.241c0.407,0,0.757,0.082,1.049,0.243
				c0.293,0.163,0.533,0.41,0.725,0.735c0.275-0.33,0.568-0.576,0.882-0.737c0.313-0.161,0.658-0.241,1.038-0.241
				c0.441,0,0.826,0.089,1.146,0.262c0.319,0.174,0.559,0.425,0.718,0.747c0.138,0.295,0.206,0.756,0.206,1.386v3.164
				c0,0.342-0.076,0.594-0.23,0.767c-0.154,0.171-0.359,0.256-0.612,0.256c-0.247,0-0.446-0.087-0.603-0.258
				c-0.155-0.174-0.234-0.429-0.234-0.765v-2.726c0-0.35-0.015-0.627-0.044-0.837c-0.029-0.21-0.11-0.388-0.238-0.529
				c-0.133-0.142-0.332-0.215-0.596-0.215c-0.214,0-0.417,0.066-0.609,0.192c-0.191,0.124-0.342,0.298-0.45,0.508
				C320.018,469.864,319.956,470.348,319.956,471.042"/>
		</g>
		<g>
			<path style="fill:#FFFFFF;" d="M244.516,470.53c-0.001-0.003-0.001-0.006-0.001-0.011
				C244.515,470.524,244.515,470.527,244.516,470.53z"/>
			<path style="fill:#FFFFFF;" d="M244.598,471.049C244.599,471.049,244.599,471.049,244.598,471.049
				c-0.029-0.147-0.053-0.294-0.072-0.438C244.544,470.756,244.568,470.903,244.598,471.049z"/>
			<path style="fill:#FFFFFF;" d="M245.134,472.553c-0.004-0.006-0.007-0.014-0.011-0.021
				C245.127,472.539,245.13,472.547,245.134,472.553z"/>
			<path style="fill:#FFFFFF;" d="M245.083,472.452c-0.014-0.027-0.027-0.056-0.041-0.083
				C245.056,472.398,245.069,472.425,245.083,472.452z"/>
			<path style="fill:#FFFFFF;" d="M244.748,471.628c0.079,0.25,0.175,0.493,0.286,0.724c-0.113-0.236-0.207-0.479-0.284-0.724
				C244.75,471.628,244.749,471.628,244.748,471.628z"/>
			<path style="fill:#FFFFFF;" d="M250.79,464.32c0.313,0,0.544,0.025,0.809,0.069l0.075-0.477c0,0-0.732-0.225-1.694-0.146
				l-0.076-0.26c0.299-0.063,0.523-0.328,0.523-0.646c0-0.364-0.296-0.659-0.661-0.659c-0.364,0-0.66,0.295-0.66,0.659
				c0,0.317,0.224,0.583,0.522,0.646l0.084,0.29c-1.021,0.141-1.835,0.539-1.835,0.539l0.144,0.44
				c0.618-0.206,1.154-0.331,1.64-0.384C250.139,464.342,250.497,464.32,250.79,464.32z"/>
			<path style="fill:#FFFFFF;" d="M245.122,466.731l0.003-0.005c0.024-0.031,0.047-0.061,0.071-0.089l-0.195-0.141l-0.305-0.223
				c-0.017,0.023-0.497,0.465-0.875,1.279c-0.016-0.025-0.035-0.051-0.056-0.074c-0.114-0.124-0.273-0.188-0.474-0.184
				c-0.002,0-0.006,0-0.009,0c-0.124,0-0.21-0.042-0.267-0.093c0.056-0.07,0.089-0.159,0.089-0.258c0-0.23-0.187-0.418-0.418-0.418
				c-0.23,0-0.418,0.188-0.418,0.418c0,0.231,0.188,0.418,0.418,0.418c0.037,0,0.071-0.006,0.105-0.013
				c0.102,0.114,0.266,0.214,0.505,0.209c0.123-0.001,0.213,0.03,0.273,0.097c0.069,0.076,0.093,0.185,0.1,0.267
				c0,0.001,0,0.003-0.002,0.003c-0.272,0.743-0.194,1.669-0.194,1.669l0.661,0.026c0.014-0.337,0.062-0.927,0.232-1.395
				C244.693,467.322,245.105,466.756,245.122,466.731z"/>
			<path style="fill:#FFFFFF;" d="M256.539,464.873c-0.23,0-0.418,0.187-0.418,0.418c0,0.035,0.005,0.07,0.015,0.103
				c-0.115,0.104-0.215,0.268-0.211,0.507c0.002,0.123-0.03,0.213-0.097,0.273c-0.053,0.048-0.119,0.072-0.185,0.088
				c-0.492-0.688-1.098-1.109-1.098-1.109l-0.474,0.509c0.357,0.326,0.724,0.734,1.08,1.244c0.246,0.352,0.499,0.806,0.71,1.259
				l0.64-0.304c0,0-0.292-0.723-0.703-1.37c0.071-0.024,0.144-0.063,0.207-0.12c0.125-0.113,0.186-0.272,0.183-0.474
				c-0.001-0.13,0.042-0.218,0.093-0.275c0.071,0.054,0.16,0.089,0.258,0.089c0.231,0,0.419-0.188,0.419-0.418
				C256.958,465.06,256.77,464.873,256.539,464.873z"/>
			<path style="fill:#FFFFFF;" d="M254.878,470.624c-0.881,0.429-2.33,0.996-4.238,1.262c-0.749,0.104-1.475,0.143-2.143,0.143
				c-0.869,0-1.637-0.064-2.227-0.14c-0.672-0.084-1.198-0.188-1.52-0.261c0.077,0.245,0.171,0.487,0.284,0.724
				c0.002,0.007,0.005,0.013,0.008,0.018c0.014,0.027,0.027,0.056,0.041,0.083c0.013,0.028,0.027,0.055,0.04,0.08
				c0.004,0.007,0.007,0.015,0.011,0.021c0.189,0.357,0.417,0.685,0.675,0.968c0.9,0.984,1.817,1.141,1.826,1.142l0.014,0.002
				l0.013,0.005c0.008,0.003,0.821,0.266,2.058,0.266c1.215,0,2.409-0.246,3.546-0.729c0.842-0.431,1.639-1.085,2.033-1.669
				c0.306-0.452,0.525-0.933,0.656-1.434c0.069-0.267,0.124-0.692,0.092-1.141C255.801,470.128,255.408,470.366,254.878,470.624z"/>
			<path style="fill:#FFFFFF;" d="M245.405,466.94c-0.025,0.037-0.408,0.578-0.709,1.408c-0.226,0.622-0.216,1.527-0.216,1.537
				v0.002c0,0.213,0.012,0.423,0.035,0.632c0,0.005,0,0.008,0.001,0.011c0.002,0.027,0.007,0.053,0.009,0.08
				c0.019,0.145,0.043,0.291,0.074,0.438c0.438,0.111,3.049,0.721,5.968,0.314c1.829-0.254,3.218-0.795,4.062-1.204
				c0.701-0.34,1.151-0.647,1.325-0.773c-0.173-0.643-0.651-1.65-1.09-2.279c-1.253-1.791-2.604-2.25-3.298-2.364
				c-0.265-0.044-0.477-0.068-0.777-0.068c-0.28,0-0.627,0.022-1.09,0.071c-0.464,0.048-0.982,0.17-1.583,0.372
				c-0.842,0.282-1.604,0.725-2.204,1.28l-0.02,0.018C245.804,466.497,245.618,466.669,245.405,466.94z M253.073,466.523
				c0.601,0,1.09,0.488,1.09,1.09c0,0.601-0.489,1.09-1.09,1.09c-0.601,0-1.089-0.489-1.089-1.09
				C251.984,467.012,252.473,466.523,253.073,466.523z M247.922,466.48c0.973,0,1.76,0.788,1.76,1.761
				c0,0.973-0.788,1.759-1.76,1.759c-0.972,0-1.76-0.786-1.76-1.759C246.162,467.269,246.951,466.48,247.922,466.48z"/>
		</g>
	</g>
</g>
</svg>
